<svg width="79" height="79" viewBox="0 0 79 79" fill="none" xmlns="http://www.w3.org/2000/svg">
<circle cx="39.5" cy="39.5" r="38.3714" fill="url(#paint0_linear_1497_4166)" stroke="url(#paint1_linear_1497_4166)" stroke-width="2.25714"/>
<path d="M34.0532 20C28.8237 20 24.5723 24.2515 24.5723 29.481C24.5723 34.6107 28.5842 38.7623 33.8137 38.942C33.9734 38.922 34.1331 38.922 34.2528 38.942C34.2927 38.942 34.3127 38.942 34.3526 38.942C34.3726 38.942 34.3726 38.942 34.3925 38.942C39.5023 38.7623 43.5142 34.6107 43.5342 29.481C43.5342 24.2515 39.2827 20 34.0532 20Z" fill="#E8E8E8"/>
<path d="M44.1915 44.2512C38.6227 40.5387 29.5408 40.5387 23.9321 44.2512C21.3972 45.9478 20 48.2432 20 50.6983C20 53.1533 21.3972 55.4288 23.9121 57.1054C26.7065 58.9816 30.3792 59.9197 34.0518 59.9197C37.7245 59.9197 41.3971 58.9816 44.1915 57.1054C46.7064 55.4088 48.1036 53.1334 48.1036 50.6583C48.0837 48.2033 46.7064 45.9278 44.1915 44.2512Z" fill="#E8E8E8"/>
<path d="M55.9884 30.6592C56.3077 34.5314 53.5533 37.9246 49.7409 38.3837C49.721 38.3837 49.721 38.3837 49.701 38.3837H49.6411C49.5214 38.3837 49.4016 38.3837 49.3018 38.4236C47.3657 38.5234 45.5893 37.9047 44.252 36.767C46.3078 34.9306 47.4855 32.1762 47.2459 29.1822C47.1062 27.5654 46.5473 26.0884 45.709 24.8309C46.4675 24.4517 47.3457 24.2122 48.2439 24.1323C52.1561 23.793 55.6491 26.7072 55.9884 30.6592Z" fill="#E8E8E8"/>
<path d="M59.9777 49.1214C59.818 51.0575 58.5805 52.7342 56.5047 53.8719C54.5087 54.9697 51.9937 55.4886 49.4987 55.4288C50.9359 54.1314 51.7742 52.5146 51.9339 50.7981C52.1334 48.323 50.9558 45.9478 48.6005 44.0516C47.2632 42.9937 45.7064 42.1554 44.0098 41.5367C48.4209 40.2592 53.9698 41.1175 57.3829 43.872C59.2192 45.349 60.1573 47.2053 59.9777 49.1214Z" fill="#E8E8E8"/>
<defs>
<linearGradient id="paint0_linear_1497_4166" x1="39.5" y1="0" x2="39.5" y2="79" gradientUnits="userSpaceOnUse">
<stop stop-color="#FF6126"/>
<stop offset="1" stop-color="#833F3F"/>
</linearGradient>
<linearGradient id="paint1_linear_1497_4166" x1="39.5" y1="0" x2="39.5" y2="79" gradientUnits="userSpaceOnUse">
<stop stop-color="#FF6126"/>
<stop offset="1" stop-color="#823E40"/>
</linearGradient>
</defs>
</svg>
