<svg width="98" height="99" viewBox="0 0 98 99" fill="none" xmlns="http://www.w3.org/2000/svg">
<rect width="98" height="98.0209" rx="20" fill="url(#paint0_linear_1497_4517)"/>
<path d="M57.8139 28H40.2071C32.5593 28 28 32.5593 28 40.2071V57.7928C28 65.4617 32.5593 70.0209 40.2071 70.0209H57.7928C65.4407 70.0209 69.9999 65.4617 69.9999 57.8139V40.2071C70.0209 32.5593 65.4617 28 57.8139 28ZM39.8289 61.9319C39.8289 62.7933 39.1145 63.5077 38.2531 63.5077C37.3917 63.5077 36.6773 62.7933 36.6773 61.9319V57.5827C36.6773 56.7213 37.3917 56.007 38.2531 56.007C39.1145 56.007 39.8289 56.7213 39.8289 57.5827V61.9319ZM50.5863 61.9319C50.5863 62.7933 49.8719 63.5077 49.0105 63.5077C48.149 63.5077 47.4347 62.7933 47.4347 61.9319V53.2126C47.4347 52.3511 48.149 51.6368 49.0105 51.6368C49.8719 51.6368 50.5863 52.3511 50.5863 53.2126V61.9319ZM61.3436 61.9319C61.3436 62.7933 60.6293 63.5077 59.7678 63.5077C58.9064 63.5077 58.192 62.7933 58.192 61.9319V48.8634C58.192 48.002 58.9064 47.2876 59.7678 47.2876C60.6293 47.2876 61.3436 48.002 61.3436 48.8634V61.9319ZM61.3436 42.2241C61.3436 43.0855 60.6293 43.7999 59.7678 43.7999C58.9064 43.7999 58.192 43.0855 58.192 42.2241V40.1861C52.8344 45.6908 46.132 49.5778 38.6313 51.4477C38.5052 51.4897 38.3792 51.4897 38.2531 51.4897C37.5388 51.4897 36.9084 51.0065 36.7193 50.2921C36.5092 49.4517 37.0135 48.5903 37.8749 48.3802C44.9554 46.6153 51.2586 42.8964 56.2591 37.6438H53.6328C52.7713 37.6438 52.057 36.9295 52.057 36.068C52.057 35.2066 52.7713 34.4922 53.6328 34.4922H59.7888C59.8729 34.4922 59.9359 34.5343 60.02 34.5343C60.125 34.5553 60.2301 34.5553 60.3351 34.5973C60.4402 34.6393 60.5242 34.7023 60.6293 34.7654C60.6923 34.8074 60.7553 34.8284 60.8184 34.8704C60.8394 34.8914 60.8394 34.9124 60.8604 34.9124C60.9444 34.9965 61.0075 35.0805 61.0705 35.1646C61.1335 35.2486 61.1965 35.3116 61.2176 35.3957C61.2596 35.4797 61.2596 35.5638 61.2806 35.6688C61.3016 35.7739 61.3436 35.8789 61.3436 36.005C61.3436 36.026 61.3646 36.047 61.3646 36.068V42.2241H61.3436Z" fill="white"/>
<defs>
<linearGradient id="paint0_linear_1497_4517" x1="49" y1="0" x2="49" y2="98.0209" gradientUnits="userSpaceOnUse">
<stop stop-color="#FF6126"/>
<stop offset="1" stop-color="#782100"/>
</linearGradient>
</defs>
</svg>
