<svg width="98" height="98" viewBox="0 0 98 98" fill="none" xmlns="http://www.w3.org/2000/svg">
<rect width="98.0007" height="97.752" rx="20" fill="url(#paint0_linear_1497_1879)"/>
<path d="M26.8041 64.8364C25.8202 64.8364 25.0043 64.0205 25.0043 63.0366V49.3578C24.8843 42.8544 27.308 36.7109 31.8196 32.1034C36.3312 27.5198 42.3787 25 48.8822 25C62.177 25 73 35.823 73 49.1179V62.7966C73 63.7805 72.1841 64.5965 71.2002 64.5965C70.2163 64.5965 69.4003 63.7805 69.4003 62.7966V49.1179C69.4003 37.8148 60.2092 28.5997 48.8822 28.5997C43.3386 28.5997 38.2031 30.7355 34.3874 34.6231C30.5477 38.5348 28.5079 43.7423 28.6039 49.3098V63.0126C28.6039 64.0205 27.812 64.8364 26.8041 64.8364Z" fill="white"/>
<path d="M34.4591 49.9531H34.1471C29.1075 49.9531 25.0039 54.0568 25.0039 59.0963V63.6079C25.0039 68.6474 29.1075 72.7511 34.1471 72.7511H34.4591C39.4986 72.7511 43.6022 68.6474 43.6022 63.6079V59.0963C43.6022 54.0568 39.4986 49.9531 34.4591 49.9531Z" fill="white"/>
<path d="M63.8575 49.9531H63.5455C58.506 49.9531 54.4023 54.0568 54.4023 59.0963V63.6079C54.4023 68.6474 58.506 72.7511 63.5455 72.7511H63.8575C68.897 72.7511 73.0007 68.6474 73.0007 63.6079V59.0963C73.0007 54.0568 68.897 49.9531 63.8575 49.9531Z" fill="white"/>
<defs>
<linearGradient id="paint0_linear_1497_1879" x1="49.0003" y1="0" x2="49.0003" y2="97.752" gradientUnits="userSpaceOnUse">
<stop stop-color="#FF6126"/>
<stop offset="1" stop-color="#782100"/>
</linearGradient>
</defs>
</svg>
