<svg width="98" height="98" viewBox="0 0 98 98" fill="none" xmlns="http://www.w3.org/2000/svg">
<rect width="98" height="97.1144" rx="20" fill="url(#paint0_linear_1497_4453)"/>
<path d="M70 46.4772V36.1305C70 34.1978 68.5387 32.0059 66.7239 31.2752L53.596 25.9015C50.6498 24.6995 47.3266 24.6995 44.3805 25.9015L31.2525 31.2752C29.4613 32.0059 28 34.1978 28 36.1305V46.4772C28 58.0025 36.367 68.7971 47.798 71.9553C48.5758 72.1675 49.4243 72.1675 50.202 71.9553C61.633 68.7971 70 58.0025 70 46.4772ZM50.7677 50.6018V56.8005C50.7677 57.7668 49.9663 58.5681 49 58.5681C48.0337 58.5681 47.2323 57.7668 47.2323 56.8005V50.6018C44.8519 49.8476 43.1077 47.6321 43.1077 45.016C43.1077 41.7635 45.7475 39.1237 49 39.1237C52.2525 39.1237 54.8923 41.7635 54.8923 45.016C54.8923 47.6557 53.1482 49.8476 50.7677 50.6018Z" fill="white"/>
<defs>
<linearGradient id="paint0_linear_1497_4453" x1="49" y1="0" x2="49" y2="97.1144" gradientUnits="userSpaceOnUse">
<stop stop-color="#FF6126"/>
<stop offset="1" stop-color="#782100"/>
</linearGradient>
</defs>
</svg>
